<svg width="43" height="24" viewBox="0 0 35 35" fill="none" xmlns="http://www.w3.org/2000/svg">
<path d="M5.66336 12.5066C4.59935 12.7744 3.66972 13.4214 3.04914 14.3262C2.42857 15.2311 2.15975 16.3313 2.2932 17.4204C2.42666 18.5094 2.95319 19.5122 3.77388 20.2404C4.59457 20.9686 5.65293 21.3721 6.75011 21.375H19.1251C19.9194 21.3745 20.7046 21.2057 21.429 20.8798C22.1533 20.554 22.8005 20.0784 23.3278 19.4844C23.8551 18.8904 24.2507 18.1915 24.4884 17.4336C24.7262 16.6757 24.8007 15.8761 24.7071 15.0873C24.6135 14.2985 24.354 13.5385 23.9455 12.8573C23.537 12.1761 22.9889 11.5891 22.3373 11.135C21.6856 10.6809 20.9451 10.3699 20.1646 10.2226C19.3841 10.0753 18.5812 10.0949 17.8089 10.2802L16.3126 10.6875" stroke="#000" stroke-width="2" stroke-linecap="round" stroke-linejoin="round"/>
<path d="M17.8087 10.2802C17.4242 8.75763 16.4751 7.4382 15.1539 6.5894C13.8326 5.74061 12.2381 5.42596 10.6934 5.70925C9.14876 5.99254 7.76963 6.85257 6.83557 8.11499C5.90151 9.37742 5.48241 10.9478 5.66325 12.5077C5.66325 12.5077 5.83537 13.5 6.1875 14.0625" stroke="#000" stroke-width="2" stroke-linecap="round" stroke-linejoin="round"/>
</svg>
