<svg width="20" height="20" viewBox="0 0 20 20" fill="none" xmlns="http://www.w3.org/2000/svg">
<path d="M9.99998 0C4.4861 0 0 4.4861 0 9.99998C0 15.5139 4.4861 20 9.99998 20C15.5139 20 20 15.5139 20 9.99998C20 4.4861 15.5139 0 9.99998 0ZM9.99998 18.2609C5.4452 18.2609 1.7391 14.5548 1.7391 9.99998C1.7391 5.4452 5.4452 1.73914 9.99998 1.73914C14.5548 1.73914 18.2609 5.4452 18.2609 9.99998C18.2609 14.5548 14.5548 18.2609 9.99998 18.2609Z" fill="white"/>
<path d="M14.6557 5.34521C14.5297 5.21824 14.3392 5.18172 14.1766 5.25305L8.08964 7.86174C7.98704 7.90523 7.90528 7.98782 7.86093 8.09045L5.25223 14.1774C5.1818 14.3409 5.21832 14.5304 5.34439 14.6565C5.42787 14.7383 5.53919 14.7826 5.65222 14.7826C5.70961 14.7826 5.76786 14.7704 5.82354 14.7478L11.9105 12.1391C12.0131 12.0948 12.0948 12.0131 12.1392 11.9104L14.7479 5.8235C14.8175 5.66001 14.7809 5.47043 14.6557 5.34521ZM10.0001 10.8696C9.52092 10.8696 9.13051 10.4791 9.13051 10C9.13051 9.52087 9.52096 9.13047 10.0001 9.13047C10.4792 9.13047 10.8696 9.52091 10.8696 10C10.8697 10.4791 10.4792 10.8696 10.0001 10.8696Z" fill="white"/>
</svg>
