<svg width="24" height="24" viewBox="0 0 24 24" fill="none" xmlns="http://www.w3.org/2000/svg">
<path d="M8.368 4.79L5.632 3.877C5.33133 3.77686 5.01118 3.7496 4.69791 3.79747C4.38464 3.84533 4.08723 3.96696 3.83019 4.15232C3.57315 4.33767 3.36383 4.58146 3.21949 4.86359C3.07516 5.14571 2.99992 5.4581 3 5.775V17.558C2.9999 17.9779 3.13198 18.3872 3.37752 18.7279C3.62305 19.0686 3.96959 19.3233 4.368 19.456L8.368 20.789C8.77825 20.9256 9.22175 20.9256 9.632 20.789L14.368 19.211C14.7783 19.0744 15.2217 19.0744 15.632 19.211L18.368 20.123C18.6687 20.2232 18.989 20.2504 19.3023 20.2025C19.6157 20.1546 19.9132 20.0329 20.1702 19.8474C20.4273 19.6619 20.6366 19.418 20.7808 19.1357C20.9251 18.8535 21.0002 18.541 21 18.224V6.442C21.0002 6.02219 20.8682 5.61298 20.6229 5.27233C20.3775 4.93168 20.0312 4.67687 19.633 4.544L15.633 3.211C15.2224 3.07414 14.7786 3.07414 14.368 3.211L9.631 4.789C9.22074 4.92564 8.77725 4.92564 8.367 4.789L8.368 4.79Z" stroke="url(#paint0_linear)" stroke-width="2" stroke-linecap="round" stroke-linejoin="round"/>
<path d="M9 5V21" stroke="url(#paint1_linear)" stroke-width="2" stroke-linecap="round" stroke-linejoin="round"/>
<path d="M15 3V19" stroke="url(#paint2_linear)" stroke-width="2" stroke-linecap="round" stroke-linejoin="round"/>
<defs>
<linearGradient id="paint0_linear" x1="3" y1="3.10835" x2="20.7818" y2="21.107" gradientUnits="userSpaceOnUse">
<stop stop-color="#1E92E6"/>
<stop offset="1" stop-color="#073170"/>
</linearGradient>
<linearGradient id="paint1_linear" x1="9" y1="5" x2="10.9922" y2="5.12451" gradientUnits="userSpaceOnUse">
<stop stop-color="#1E92E6"/>
<stop offset="1" stop-color="#073170"/>
</linearGradient>
<linearGradient id="paint2_linear" x1="15" y1="3" x2="16.9922" y2="3.12451" gradientUnits="userSpaceOnUse">
<stop stop-color="#1E92E6"/>
<stop offset="1" stop-color="#073170"/>
</linearGradient>
</defs>
</svg>
