<svg width="20" height="20" viewBox="0 0 20 20" fill="none" xmlns="http://www.w3.org/2000/svg">
<path d="M2.5 6.66666H8.33333C8.82779 6.66666 9.31114 6.52003 9.72226 6.24533C10.1334 5.97063 10.4538 5.58018 10.643 5.12337C10.8323 4.66655 10.8818 4.16388 10.7853 3.67893C10.6888 3.19398 10.4507 2.74852 10.1011 2.39889C9.75147 2.04926 9.30601 1.81116 8.82106 1.71469C8.33611 1.61823 7.83344 1.66774 7.37662 1.85696C6.91981 2.04618 6.52936 2.36661 6.25466 2.77773C5.97996 3.18886 5.83333 3.6722 5.83333 4.16666" stroke="white" stroke-width="2" stroke-linecap="round" stroke-linejoin="round"/>
<path d="M3.33325 13.3333H12.4999C12.9944 13.3333 13.4777 13.48 13.8888 13.7547C14.3 14.0294 14.6204 14.4198 14.8096 14.8766C14.9988 15.3335 15.0483 15.8361 14.9519 16.3211C14.8554 16.806 14.6173 17.2515 14.2677 17.6011C13.9181 17.9507 13.4726 18.1888 12.9876 18.2853C12.5027 18.3818 12 18.3323 11.5432 18.143C11.0864 17.9538 10.6959 17.6334 10.4212 17.2223C10.1465 16.8111 9.99992 16.3278 9.99992 15.8333" stroke="white" stroke-width="2" stroke-linecap="round" stroke-linejoin="round"/>
<path d="M1.66675 10H15.8334C16.3279 10 16.8112 9.85338 17.2223 9.57867C17.6335 9.30397 17.9539 8.91352 18.1431 8.45671C18.3323 7.99989 18.3818 7.49723 18.2854 7.01227C18.1889 6.52732 17.9508 6.08187 17.6012 5.73223C17.2516 5.3826 16.8061 5.1445 16.3211 5.04804C15.8362 4.95157 15.3335 5.00108 14.8767 5.1903C14.4199 5.37952 14.0294 5.69995 13.7547 6.11108C13.48 6.5222 13.3334 7.00555 13.3334 7.5" stroke="white" stroke-width="2" stroke-linecap="round" stroke-linejoin="round"/>
</svg>
