<svg width="20" height="20" viewBox="0 0 20 20" fill="none" xmlns="http://www.w3.org/2000/svg">
<path d="M2.65252 11.6667C2.6324 11.667 2.61242 11.6633 2.59376 11.6558C2.57511 11.6482 2.55816 11.637 2.54393 11.6228C2.52971 11.6085 2.51848 11.5916 2.51094 11.5729C2.5034 11.5543 2.49968 11.5343 2.50002 11.5142C2.57502 6.98168 5.90419 3.33334 10 3.33334C14.0967 3.33334 17.425 6.98168 17.4984 11.5142C17.4987 11.5341 17.4951 11.5539 17.4877 11.5723C17.4803 11.5908 17.4693 11.6077 17.4553 11.6219C17.4414 11.6361 17.4247 11.6473 17.4063 11.655C17.388 11.6627 17.3683 11.6667 17.3484 11.6667C17.3185 11.6665 17.2892 11.6578 17.2641 11.6415C17.239 11.6253 17.2191 11.6022 17.2067 11.575C16.7692 10.6392 15.89 10 14.875 10C13.8875 10 13.3634 10.6058 12.9534 11.5017C12.9313 11.5505 12.8958 11.5921 12.8509 11.6213C12.806 11.6506 12.7536 11.6663 12.7 11.6667C12.6416 11.6649 12.585 11.6463 12.5368 11.6132C12.4886 11.5801 12.451 11.5339 12.4284 11.48C12.0334 10.6075 10.9159 10 10 10C9.08419 10 7.96669 10.6083 7.57169 11.48C7.54905 11.5339 7.5114 11.5801 7.46324 11.6132C7.41508 11.6463 7.35843 11.6649 7.30002 11.6667C7.24643 11.6663 7.19408 11.6506 7.14917 11.6213C7.10427 11.5921 7.0687 11.5505 7.04669 11.5017C6.63669 10.6058 6.11335 10 5.12502 10C4.11085 10 3.23085 10.6392 2.79335 11.575C2.78095 11.6022 2.76102 11.6253 2.73592 11.6415C2.71081 11.6578 2.68159 11.6665 2.65169 11.6667H2.65252Z" stroke="#000" stroke-width="1" stroke-linecap="round" stroke-linejoin="round"/>
<path d="M10.0001 10V16.6667C10.0001 17.1087 9.82449 17.5326 9.51193 17.8452C9.19936 18.1577 8.77544 18.3333 8.33341 18.3333C7.89139 18.3333 7.46746 18.1577 7.1549 17.8452C6.84234 17.5326 6.66675 17.1087 6.66675 16.6667V15.8333" stroke="#000" stroke-width="1" stroke-linecap="round" stroke-linejoin="round"/>
<path d="M10 3.33332V1.66666" stroke="#000" stroke-width="1" stroke-linecap="round" stroke-linejoin="round"/>
<path d="M100" fill="#000" stroke="#000"/>
</svg>
