<svg width="20" height="20" viewBox="0 0 24 29" fill="#fff" xmlns="http://www.w3.org/2000/svg">
<g clip-path="url(#clip0)">
<path d="M19.1999 20.1329C17.7773 20.1329 17.0431 20.7568 16.3954 21.3071C15.8265 21.7903 15.3772 22.1719 14.3996 22.1719C13.4222 22.1719 12.9728 21.7903 12.4041 21.3071C11.7565 20.7566 11.0222 20.1329 9.59967 20.1329C8.17731 20.1329 7.44305 20.7568 6.79541 21.3071C6.22668 21.7903 5.77734 22.1719 4.79993 22.1719C3.82251 22.1719 3.37317 21.7903 2.80444 21.3071C2.15662 20.7568 1.42236 20.1329 0 20.1329V21.8321C0.9776 21.8321 1.42676 22.2138 1.99548 22.6972C2.64331 23.2474 3.37738 23.8712 4.79993 23.8712C6.22229 23.8712 6.95654 23.2474 7.60419 22.6972C8.17291 22.2138 8.62225 21.8321 9.59967 21.8321C10.5773 21.8321 11.0264 22.2138 11.5953 22.6972C12.243 23.2474 12.9772 23.8712 14.3996 23.8712C15.8221 23.8712 16.5564 23.2474 17.2042 22.6972C17.7729 22.214 18.2223 21.8321 19.1999 21.8321C20.1775 21.8321 20.6266 22.2138 21.1956 22.6972C21.8432 23.2474 22.5775 23.8712 24 23.8712V22.1719C23.0224 22.1719 22.5731 21.7903 22.0043 21.3071C21.3565 20.7568 20.6223 20.1329 19.1999 20.1329Z" fill="#fff"/>
<path d="M19.1999 10.1095C17.7773 10.1095 17.0431 10.7332 16.3954 11.2835C15.8265 11.7667 15.3772 12.1486 14.3996 12.1486C13.4222 12.1486 12.9728 11.7667 12.4041 11.2835C11.7565 10.7332 11.0222 10.1095 9.59967 10.1095C8.17731 10.1095 7.44305 10.7332 6.79541 11.2835C6.22668 11.7667 5.77734 12.1486 4.79993 12.1486C3.82251 12.1486 3.37317 11.7667 2.80444 11.2835C2.15662 10.7332 1.42236 10.1095 0 10.1095V11.8087C0.9776 11.8087 1.42676 12.1904 1.99548 12.6736C2.64331 13.2241 3.37738 13.8478 4.79993 13.8478C6.22229 13.8478 6.95654 13.2238 7.60419 12.6736C8.17291 12.1904 8.62225 11.8087 9.59967 11.8087C10.5773 11.8087 11.0264 12.1904 11.5953 12.6736C12.243 13.2241 12.9772 13.8478 14.3996 13.8478C15.8221 13.8478 16.5564 13.2238 17.2042 12.6736C17.7729 12.1904 18.2223 11.8087 19.1999 11.8087C20.1775 11.8087 20.6266 12.1904 21.1956 12.6736C21.8432 13.2241 22.5775 13.8478 24 13.8478V12.1486C23.0224 12.1486 22.5731 11.7667 22.0043 11.2835C21.3565 10.7332 20.6223 10.1095 19.1999 10.1095Z" fill="#fff"/>
<path d="M19.1999 15.1213C17.7773 15.1213 17.0431 15.745 16.3954 16.2952C15.8265 16.7785 15.3772 17.1603 14.3996 17.1603C13.4222 17.1603 12.9728 16.7785 12.4041 16.2952C11.7565 15.745 11.0222 15.1213 9.59967 15.1213C8.17731 15.1213 7.44305 15.745 6.79541 16.2952C6.22668 16.7785 5.77734 17.1603 4.79993 17.1603C3.82251 17.1603 3.37317 16.7785 2.80444 16.2952C2.15662 15.745 1.42236 15.1213 0 15.1213V16.8205C0.9776 16.8205 1.42676 17.2022 1.99548 17.6854C2.64331 18.2356 3.37738 18.8596 4.79993 18.8596C6.22229 18.8596 6.95654 18.2356 7.60419 17.6854C8.17291 17.2022 8.62225 16.8205 9.59967 16.8205C10.5773 16.8205 11.0264 17.2022 11.5953 17.6854C12.243 18.2356 12.9772 18.8596 14.3996 18.8596C15.8221 18.8596 16.5564 18.2356 17.2042 17.6854C17.7729 17.2022 18.2223 16.8205 19.1999 16.8205C20.1775 16.8205 20.6266 17.2022 21.1956 17.6854C21.8432 18.2356 22.5775 18.8596 24 18.8596V17.1603C23.0224 17.1603 22.5731 16.7785 22.0043 16.2952C21.3565 15.745 20.6223 15.1213 19.1999 15.1213Z" fill="#fff"/>
<path d="M22.0043 6.27184C21.3565 5.72137 20.6223 5.09766 19.1999 5.09766C17.7773 5.09766 17.0431 5.72137 16.3954 6.27184C15.8265 6.75506 15.3772 7.13672 14.3996 7.13672C13.4222 7.13672 12.9728 6.75506 12.4041 6.27184C11.7565 5.72137 11.0222 5.09766 9.59967 5.09766C8.17731 5.09766 7.44305 5.72137 6.79541 6.27184C6.22668 6.75506 5.77734 7.13672 4.79993 7.13672C3.82251 7.13672 3.37317 6.75506 2.80444 6.27184C2.15662 5.72137 1.42236 5.09766 0 5.09766V6.79688C0.9776 6.79688 1.42676 7.17854 1.99548 7.66175C2.64331 8.21223 3.37738 8.83594 4.79993 8.83594C6.22229 8.83594 6.95654 8.21223 7.60419 7.66175C8.17291 7.17854 8.62225 6.79688 9.59967 6.79688C10.5773 6.79688 11.0264 7.17854 11.5953 7.66175C12.243 8.21223 12.9772 8.83594 14.3996 8.83594C15.8221 8.83594 16.5564 8.21223 17.2042 7.66175C17.7729 7.17854 18.2223 6.79688 19.1999 6.79688C20.1775 6.79688 20.6266 7.17854 21.1956 7.66175C21.8432 8.21223 22.5775 8.83594 24 8.83594V7.13672C23.0224 7.13672 22.5731 6.75506 22.0043 6.27184Z" fill="#fff"/>
</g>
<defs>
<clipPath id="clip0">
<rect width="24" height="29" fill="white"/>
</clipPath>
</defs>
</svg>
